<svg xmlns="http://www.w3.org/2000/svg" width="135.383" height="135.383" viewBox="0 0 135.383 135.383">
  <g id="Group_1" data-name="Group 1" transform="translate(-369.563 -293.063)">
    <path id="Exclusion_1" data-name="Exclusion 1" d="M-516.123-106.617h0L-542.308-132.8-568.5-106.618l-41.5-41.5,26.187-26.186L-610-200.5l41.5-41.5,26.187,26.187L-516.122-242l41.5,41.5L-500.8-174.308l26.186,26.186-41.5,41.5Zm-9.112-75.446a3.217,3.217,0,0,0-2.348.98,3.217,3.217,0,0,0-.98,2.348v8.343a3.217,3.217,0,0,0,.98,2.348,3.217,3.217,0,0,0,2.348.98h3.344a3.207,3.207,0,0,0,2.348-.988,3.225,3.225,0,0,0,.98-2.34v-8.343a3.225,3.225,0,0,0-.98-2.344,3.213,3.213,0,0,0-2.348-.984Zm-13.328,0a3.183,3.183,0,0,0-2.363.992,3.255,3.255,0,0,0-.965,2.336v8.343a3.217,3.217,0,0,0,.98,2.348,3.217,3.217,0,0,0,2.348.98h3.343a3.624,3.624,0,0,0,2.262-.835,2.988,2.988,0,0,0,1.067-2.493v-5h-5v1.656h1.672v3.344a1.571,1.571,0,0,1-1.672,1.657,1.629,1.629,0,0,1-1.179-.484,1.591,1.591,0,0,1-.492-1.173v-8.343a1.594,1.594,0,0,1,.492-1.168,1.619,1.619,0,0,1,1.179-.489h1.672c.97,0,1.527.557,1.656,1.657h1.672a3.718,3.718,0,0,0-.926-2.5,3.267,3.267,0,0,0-2.4-.832Zm-13.328,0a3.217,3.217,0,0,0-2.348.98,3.217,3.217,0,0,0-.98,2.348v8.343a3.217,3.217,0,0,0,.98,2.348,3.217,3.217,0,0,0,2.348.98h3.344a3.2,3.2,0,0,0,2.347-.988,3.223,3.223,0,0,0,.981-2.34v-8.343a3.222,3.222,0,0,0-.981-2.344,3.209,3.209,0,0,0-2.347-.984Zm-15,0v15h8.328v-1.671h-5v-13.328Zm43.328,13.328a1.615,1.615,0,0,1-1.184-.492,1.608,1.608,0,0,1-.488-1.165v-8.343a1.594,1.594,0,0,1,.492-1.168,1.62,1.62,0,0,1,1.179-.489,1.628,1.628,0,0,1,1.176.489,1.59,1.59,0,0,1,.5,1.168v8.343a1.606,1.606,0,0,1-.489,1.165A1.612,1.612,0,0,1-523.563-168.735Zm-26.656,0a1.615,1.615,0,0,1-1.183-.492,1.608,1.608,0,0,1-.488-1.165v-8.343a1.594,1.594,0,0,1,.492-1.168,1.619,1.619,0,0,1,1.179-.489,1.628,1.628,0,0,1,1.176.489,1.591,1.591,0,0,1,.5,1.168v8.343a1.606,1.606,0,0,1-.489,1.165A1.612,1.612,0,0,1-550.22-168.735Z" transform="translate(979.563 535.063)" fill="#d3d3d3"/>
  </g>
</svg>
