<svg xmlns="http://www.w3.org/2000/svg"><symbol class="svg-inline--fa fa-angle-left fa-w-8" id="sprite-arrow-left" viewBox="0 0 256 512"><title>arrow-left</title><path fill="#fff" opacity=".7" d="M31.7 239l136-136c9.4-9.4 24.6-9.4 33.9 0l22.6 22.6c9.4 9.4 9.4 24.6 0 33.9L127.9 256l96.4 96.4c9.4 9.4 9.4 24.6 0 33.9L201.7 409c-9.4 9.4-24.6 9.4-33.9 0l-136-136c-9.5-9.4-9.5-24.6-.1-34z"/></symbol><symbol class="svg-inline--fa fa-angle-right fa-w-8" id="sprite-arrow-right" viewBox="0 0 256 512"><title>arrow-right</title><path fill="#fff" opacity=".7" d="M224.3 273l-136 136c-9.4 9.4-24.6 9.4-33.9 0l-22.6-22.6c-9.4-9.4-9.4-24.6 0-33.9l96.4-96.4-96.4-96.4c-9.4-9.4-9.4-24.6 0-33.9L54.3 103c9.4-9.4 24.6-9.4 33.9 0l136 136c9.5 9.4 9.5 24.6.1 34z"/></symbol><symbol id="sprite-candy" viewBox="0 0 1920 1"><title>candy</title><path data-name="Line 1" fill="none" stroke="#f8b500" stroke-dasharray="10 9" d="M0 .5h1920"/></symbol><symbol class="svg-inline--fa fa-instagram fa-w-14" id="sprite-icon_instagram" viewBox="0 0 448 512"><title>icon_instagram</title><path fill="currentColor" d="M224.1 141c-63.6 0-114.9 51.3-114.9 114.9s51.3 114.9 114.9 114.9S339 319.5 339 255.9 287.7 141 224.1 141zm0 189.6c-41.1 0-74.7-33.5-74.7-74.7s33.5-74.7 74.7-74.7 74.7 33.5 74.7 74.7-33.6 74.7-74.7 74.7zm146.4-194.3c0 14.9-12 26.8-26.8 26.8-14.9 0-26.8-12-26.8-26.8s12-26.8 26.8-26.8 26.8 12 26.8 26.8zm76.1 27.2c-1.7-35.9-9.9-67.7-36.2-93.9-26.2-26.2-58-34.4-93.9-36.2-37-2.1-147.9-2.1-184.9 0-35.8 1.7-67.6 9.9-93.9 36.1s-34.4 58-36.2 93.9c-2.1 37-2.1 147.9 0 184.9 1.7 35.9 9.9 67.7 36.2 93.9s58 34.4 93.9 36.2c37 2.1 147.9 2.1 184.9 0 35.9-1.7 67.7-9.9 93.9-36.2 26.2-26.2 34.4-58 36.2-93.9 2.1-37 2.1-147.8 0-184.8zM398.8 388c-7.8 19.6-22.9 34.7-42.6 42.6-29.5 11.7-99.5 9-132.1 9s-102.7 2.6-132.1-9c-19.6-7.8-34.7-22.9-42.6-42.6-11.7-29.5-9-99.5-9-132.1s-2.6-102.7 9-132.1c7.8-19.6 22.9-34.7 42.6-42.6 29.5-11.7 99.5-9 132.1-9s102.7-2.6 132.1 9c19.6 7.8 34.7 22.9 42.6 42.6 11.7 29.5 9 99.5 9 132.1s2.7 102.7-9 132.1z"/></symbol><symbol id="sprite-illustration" viewBox="0 0 944.39 775.54"><defs><style>.cls-2{fill:#74d5de}.cls-3{fill:none;stroke-linecap:round;stroke:#56cad8;stroke-miterlimit:10;stroke-width:4px}.cls-4{fill:#56cad8}.cls-7{fill:#fd8369}.cls-9{fill:#de8e68}</style></defs><title>hiker-man-colour</title><g id="Layer_2" data-name="Layer 2"><g id="vector"><path d="M264 725.66C350.18 666 514.51 578.47 671.74 518q4.18-3.74 8.5-7.54c64.42-56.95 150.43-128 160.79-205.68 10.2-77.85-55.24-162.5-135.3-208.22C625.67 51 531 44.19 436.15 44S246.28 50.13 199 101.64c-47.06 51.36-46.38 148.05-53.52 236.27s-22.26 168.11.68 242.9c18.75 61.55 63.4 119.87 117.84 144.85z" fill="#f8f8f8"/><path class="cls-2" d="M730.92 496.42c-8.35-2.86-35.67-39-35.67-81.89 0-49.83 52.71-144.15 57.72-177.75 3.19-21.37 17.58-209.64 126.86-209.64 59.59 0 64.56 116.51 64.56 168.62 0 121.73-177 225.42-177 288.65a270.49 270.49 0 01-36.47 12.01z"/><path class="cls-3" d="M744.36 491.9c0-97.62 72.85-275.48 136.93-338.07"/><path class="cls-4" d="M323.68 687.41c-5.58-1.66-20.75-21-20.75-45.92 0-24 6.74-59 6.74-91.47 0-18.06-6.74-24.46-6.74-45.95 0-34.25 32.46-44.68 43.84-44.68 16.75 0 25.71 14.33 25.71 21.92 0 10.59-3 18.63-3 30.35 0 22.91 8 25.78 7.16 45.52-2.5 57.71-26.46 114.13-47.52 126.93z"/><path class="cls-2" d="M323.68 687.41c6.84-5.9-31.46-192.5-64.68-225.52-36.14-35.89-65.85-54.89-75.66-66.67-17.4-20.89-28.48-99.67-105.07-99.67-20.26 0-68 16.75-76.59 87.64-2.81 23.27-7.92 58.87 40.51 110.46 32.62 34.76 73.42 22.79 113.3 60.45 28.71 27.11 24.69 68 51.5 102.55 21.45 27.6 77.14 64.83 116.69 30.76z"/><path class="cls-3" d="M314.28 691.86c0-46.83-147.73-258.19-206.84-288.42"/><path d="M323.68 687.41c-1.47-11.1-7.67-105.4 9.9-139.76" stroke="#74d5de" stroke-linejoin="round" stroke-width="4" fill="none" stroke-linecap="round"/><path d="M207 774c44.21-63.13 439.14-278.51 676.39-318.3" stroke="#6d6d6d" stroke-width="3" stroke-miterlimit="10" fill="none" stroke-linecap="round"/><rect class="cls-7" x="440.69" y="112.93" width="119.93" height="222.98" rx="12" ry="12"/><path d="M451 700.49v26h-70.6v-11l43.74-20.09zm153.15-24.93c3.57 8 12 28.73 12 28.73l-35.23 22.15H549l-3.74-12.24 40.1-30.69z" fill="#333"/><ellipse class="cls-9" cx="482.12" cy="70.41" rx="29.77" ry="37.54"/><path class="cls-9" d="M460.44 3.36c-3.9-5.36-14.91-4.15-24.59 2.82a33.84 33.84 0 00-9.16 9.67 2.68 2.68 0 00-1-.23c-4.7 0-82.83 41.79-82.09 61.07s26.95 50.2 36.1 56.13c0 0 41.29-19.28 39.07-25.47s-26-26-30.17-29.92c4.9-2.56 44.12-41.42 48.55-45.82A33.22 33.22 0 00450 25.8c9.66-6.98 14.35-17.02 10.44-22.44z"/><path d="M438 166.65c9-7.24-5.9-67.95-21.87-69.44s-43.82 28.6-42.7 37.14 41.83 50.5 64.57 32.3z" fill="#fcc486"/><path class="cls-4" d="M402.27 312c0 10 5 356 14 386 8 4 29 5 36 2s51.67-382.52 51.67-399.18S402.27 312 402.27 312z"/><path class="cls-2" d="M581.61 687.19c-9.55-15-133.9-306.28-143.65-378.1 10.21-7.91 86.19-20.52 92.34-6.16s80 369.39 77.47 374-18.98 11.8-26.16 10.26z"/><path d="M482.54 119c64.5 0 60.5 178.5 46.5 189.5s-123.5 11.5-130.5 3.5-23.54-193 84-193z" fill="#fed385"/><path class="cls-7" d="M529.47 57.66c0-7.61-7.27-13.1-7.27-17.32s2.49-11.78-3.08-17.19c-6.77-6.57-17.56-3.83-27.22-3.83-9.08 0-14.09-10.55-26.48-10.55-8.26 0-7.21 10.72-10.3 13.38-2.29 2-20.14 5.84-20.14 14 0 9.12.24 21.36 19.18 21.36 1.26-4.38 6-14 11.4-18.28 2.78 1.2 18 7.48 21.77 8.59s9.28 17.25 15.12 19.2 6.21 12.7 10.48 12.24 16.54-2.26 16.54-21.6z"/><circle class="cls-9" cx="507.75" cy="73.37" r="7.87"/><path class="cls-9" d="M497 133c-1.26 4.35-27.71-.93-27.2-5.85l4.52-43.7 31.87 6.86S498.28 128.67 497 133z"/><path stroke="#333" stroke-width="7" stroke-miterlimit="10" fill="none" stroke-linecap="round" d="M677.16 156.44L565.31 710.91"/><path class="cls-9" d="M659.22 309.44a20.39 20.39 0 00-11-5.75c-13.34-21.53-58.67-87.89-78.66-112-14.41 10.35-32 28.45-32 28.45 7.35 8.24 62.4 73.37 91.69 98.91a19.91 19.91 0 006 14.37c7.41 7.42 18.79 8.06 25.41 1.45s5.97-18.01-1.44-25.43z"/><path d="M507.87 148.25c25.87-19.23 68.52 27.27 67.82 39.5S542.21 227.1 531 227.13c-13.69.02-45.15-62.51-23.13-78.88z" fill="#fed892"/></g></g></symbol><symbol id="sprite-logo" viewBox="0 0 135.383 135.383"><title>logo</title><g data-name="Group 1"><path data-name="Exclusion 1" d="M463.44 428.446l-26.185-26.183-26.192 26.182-41.5-41.5 26.187-26.186-26.187-26.196 41.5-41.5 26.187 26.187 26.191-26.187 41.5 41.5-26.178 26.192 26.186 26.186-41.5 41.5zM454.328 353a3.217 3.217 0 00-2.348.98 3.217 3.217 0 00-.98 2.348v8.343a3.217 3.217 0 00.98 2.348 3.217 3.217 0 002.348.98h3.344a3.207 3.207 0 002.348-.988 3.225 3.225 0 00.98-2.34v-8.343a3.225 3.225 0 00-.98-2.344 3.213 3.213 0 00-2.348-.984zM441 353a3.183 3.183 0 00-2.363.992 3.255 3.255 0 00-.965 2.336v8.343a3.217 3.217 0 00.98 2.348 3.217 3.217 0 002.348.98h3.343a3.624 3.624 0 002.262-.835 2.988 2.988 0 001.067-2.493v-5h-5v1.656h1.672v3.344a1.571 1.571 0 01-1.672 1.657 1.629 1.629 0 01-1.179-.484 1.591 1.591 0 01-.492-1.173v-8.343a1.594 1.594 0 01.492-1.168 1.619 1.619 0 011.179-.489h1.672c.97 0 1.527.557 1.656 1.657h1.672a3.718 3.718 0 00-.926-2.5 3.267 3.267 0 00-2.4-.832zm-13.328 0a3.217 3.217 0 00-2.348.98 3.217 3.217 0 00-.98 2.348v8.343a3.217 3.217 0 00.98 2.348 3.217 3.217 0 002.348.98h3.344a3.2 3.2 0 002.347-.988 3.223 3.223 0 00.981-2.34v-8.343a3.222 3.222 0 00-.981-2.344 3.209 3.209 0 00-2.347-.984zm-15 0v15H421v-1.671h-5v-13.328zM456 366.328a1.615 1.615 0 01-1.184-.492 1.608 1.608 0 01-.488-1.165v-8.343a1.594 1.594 0 01.492-1.168 1.62 1.62 0 011.179-.489 1.628 1.628 0 011.176.489 1.59 1.59 0 01.5 1.168v8.343a1.606 1.606 0 01-.489 1.165 1.612 1.612 0 01-1.186.492zm-26.656 0a1.615 1.615 0 01-1.183-.492 1.608 1.608 0 01-.488-1.165v-8.343a1.594 1.594 0 01.492-1.168 1.619 1.619 0 011.179-.489 1.628 1.628 0 011.176.489 1.591 1.591 0 01.5 1.168v8.343a1.606 1.606 0 01-.489 1.165 1.612 1.612 0 01-1.188.492z" fill="#d3d3d3" transform="translate(-369.563 -293.063)"/></g></symbol></svg>